<?xml version="1.0"?><svg fill="#ffffff" xmlns="http://www.w3.org/2000/svg"  viewBox="0 0 100 100" width="100px" height="100px">    <path d="M 51.074219 7.9609375 C 28.742219 7.9609375 10.574219 26.128937 10.574219 48.460938 C 10.574219 70.792937 28.742219 88.960938 51.074219 88.960938 C 73.406219 88.960938 91.574219 70.792938 91.574219 48.460938 C 91.574219 26.128938 73.406219 7.9609375 51.074219 7.9609375 z M 51.074219 9.9609375 C 72.302219 9.9609375 89.574219 27.231938 89.574219 48.460938 C 89.574219 69.689937 72.303219 86.960938 51.074219 86.960938 C 29.845219 86.960938 12.574219 69.689937 12.574219 48.460938 C 12.574219 27.231938 29.845219 9.9609375 51.074219 9.9609375 z M 50.044922 13.544922 C 47.779641 13.590891 45.502187 13.861328 43.242188 14.361328 C 34.306187 16.338328 26.688922 21.680344 21.794922 29.402344 C 11.634922 45.429344 16.467406 66.870219 32.566406 77.199219 C 38.247406 80.844219 44.691047 82.726562 51.248047 82.726562 C 53.742047 82.726562 56.252141 82.453344 58.744141 81.902344 C 67.680141 79.925344 75.299359 74.585281 80.193359 66.863281 C 84.250359 60.461281 86.050484 53.074 85.396484 45.5 C 85.373484 45.224 85.123469 45.015922 84.855469 45.044922 C 84.580469 45.067922 84.377391 45.310938 84.400391 45.585938 C 84.440022 46.044976 84.469114 46.503513 84.490234 46.960938 L 79.802734 46.960938 C 79.526734 46.960938 79.302734 47.184937 79.302734 47.460938 C 79.302734 47.736938 79.526734 47.960938 79.802734 47.960938 L 84.517578 47.960938 C 84.62705 54.478321 82.863215 60.784317 79.349609 66.328125 C 78.168153 68.191946 76.821379 69.913141 75.333984 71.476562 L 72.683594 68.800781 C 72.489594 68.604781 72.170563 68.601875 71.976562 68.796875 C 71.780563 68.990875 71.778656 69.307906 71.972656 69.503906 L 74.628906 72.183594 C 70.240129 76.524741 64.713465 79.559732 58.529297 80.927734 C 56.020825 81.482347 53.492711 81.73508 50.982422 81.714844 C 50.987279 81.686883 51 81.662155 51 81.632812 L 51 77.632812 C 51 77.356813 50.776 77.132812 50.5 77.132812 C 50.224 77.132812 50 77.356813 50 77.632812 L 50 81.632812 C 50 81.656527 50.010474 81.676381 50.013672 81.699219 C 44.074641 81.478122 38.265749 79.670165 33.105469 76.359375 C 31.080232 75.060074 29.242084 73.577658 27.591797 71.951172 L 30.142578 69.378906 C 30.336578 69.182906 30.334672 68.865875 30.138672 68.671875 C 29.943672 68.476875 29.626641 68.477828 29.431641 68.673828 L 26.892578 71.234375 C 20.813265 64.876185 17.53483 56.471156 17.486328 47.943359 C 17.516085 47.948888 17.542867 47.960938 17.574219 47.960938 L 20.513672 47.960938 C 20.790672 47.960937 21.013672 47.736938 21.013672 47.460938 C 21.013672 47.184937 20.789672 46.960938 20.513672 46.960938 L 17.574219 46.960938 C 17.544207 46.960938 17.518796 46.97344 17.490234 46.978516 C 17.625015 41.110804 19.289978 35.22107 22.638672 29.9375 C 23.961141 27.851222 25.494601 25.951833 27.197266 24.244141 L 29.558594 26.626953 C 29.656594 26.725953 29.786063 26.775391 29.914062 26.775391 C 30.041062 26.775391 30.168625 26.727859 30.265625 26.630859 C 30.461625 26.435859 30.463531 26.119828 30.269531 25.923828 L 27.910156 23.541016 C 32.206491 19.486649 37.532886 16.650758 43.458984 15.339844 C 45.638552 14.857399 47.832688 14.596021 50.017578 14.548828 C 50.012597 14.57713 50 14.603089 50 14.632812 L 50 17.632812 C 50 17.908812 50.224 18.132812 50.5 18.132812 C 50.776 18.132812 51 17.908812 51 17.632812 L 51 14.632812 C 51 14.603886 50.989098 14.578368 50.984375 14.550781 C 57.266266 14.597613 63.435582 16.412529 68.882812 19.90625 C 70.700832 21.072756 72.380526 22.41371 73.929688 23.882812 L 71.306641 26.529297 C 71.112641 26.725297 71.114547 27.042328 71.310547 27.236328 C 71.407547 27.333328 71.535109 27.380859 71.662109 27.380859 C 71.791109 27.380859 71.919578 27.331422 72.017578 27.232422 L 74.652344 24.576172 C 77.363651 27.303464 79.605223 30.473618 81.261719 33.978516 C 81.381719 34.228516 81.678734 34.334797 81.927734 34.216797 C 82.176734 34.098797 82.284016 33.800781 82.166016 33.550781 C 79.367016 27.627781 74.960875 22.618453 69.421875 19.064453 C 63.540375 15.290453 56.840766 13.407016 50.044922 13.544922 z M 50.574219 20.960938 C 50.021219 20.960938 49.574219 21.408938 49.574219 21.960938 L 49.574219 44.011719 C 49.574219 44.173141 49.621529 44.320046 49.689453 44.455078 C 48.437398 45.131577 47.574219 46.440422 47.574219 47.960938 C 47.574219 48.423553 47.669408 48.861758 47.814453 49.275391 L 34.564453 62.605469 C 33.105453 64.072469 33.635641 64.922703 33.931641 65.220703 C 34.155641 65.445703 34.441813 65.564453 34.757812 65.564453 C 35.424813 65.564453 36.094062 65.031984 36.539062 64.583984 L 49.617188 51.427734 C 50.198442 51.757407 50.859447 51.960938 51.574219 51.960938 C 53.442833 51.960938 55.003965 50.668077 55.441406 48.933594 C 55.486929 48.93993 55.526933 48.960938 55.574219 48.960938 L 69.574219 48.960938 C 70.127219 48.960938 70.574219 48.512937 70.574219 47.960938 C 70.574219 47.408938 70.127219 46.960938 69.574219 46.960938 L 55.574219 46.960938 C 55.526933 46.960938 55.486929 46.981945 55.441406 46.988281 C 55.351159 46.630604 55.208759 46.296637 55.029297 45.984375 L 57.244141 43.755859 C 58.269141 43.927859 59.857437 43.770609 60.648438 42.974609 L 62.546875 41.0625 C 63.788875 39.8135 63.788875 37.783156 62.546875 36.535156 C 61.347875 35.328156 59.238063 35.328156 58.039062 36.535156 L 56.140625 38.445312 C 55.381625 39.209313 55.098531 40.703437 55.269531 41.773438 L 52.865234 44.193359 C 52.458282 44.053515 52.028087 43.960938 51.574219 43.960938 L 51.574219 21.960938 C 51.574219 21.408938 51.127219 20.960938 50.574219 20.960938 z M 60.292969 36.599609 C 60.877969 36.599609 61.426891 36.827234 61.837891 37.240234 C 62.691891 38.099234 62.691891 39.498422 61.837891 40.357422 L 59.939453 42.267578 C 59.426453 42.784578 58.024031 42.942563 57.207031 42.726562 C 57.032031 42.679563 56.850562 42.731422 56.726562 42.857422 L 54.429688 45.167969 C 54.242827 44.976942 54.040031 44.803105 53.818359 44.652344 L 56.167969 42.289062 C 56.292969 42.164062 56.341875 41.981547 56.296875 41.810547 C 56.100875 41.055547 56.303609 39.700391 56.849609 39.150391 L 58.748047 37.240234 C 59.159047 36.826234 59.707969 36.599609 60.292969 36.599609 z M 83.78125 39.517578 C 83.716875 39.507203 83.648078 39.508891 83.580078 39.525391 C 83.312078 39.591391 83.148844 39.862859 83.214844 40.130859 C 83.406844 40.914859 83.572031 41.718578 83.707031 42.517578 C 83.749031 42.762578 83.960219 42.933594 84.199219 42.933594 C 84.227219 42.933594 84.255203 42.931734 84.283203 42.927734 C 84.555203 42.880734 84.739359 42.621609 84.693359 42.349609 C 84.553359 41.526609 84.383547 40.700578 84.185547 39.892578 C 84.137547 39.691578 83.974375 39.548703 83.78125 39.517578 z M 51.574219 44.960938 C 53.228219 44.960938 54.574219 46.306938 54.574219 47.960938 C 54.574219 49.614937 53.228219 50.960938 51.574219 50.960938 C 49.920219 50.960938 48.574219 49.614937 48.574219 47.960938 C 48.574219 46.306938 49.920219 44.960938 51.574219 44.960938 z M 48.283203 50.222656 C 48.435055 50.442965 48.608985 50.646602 48.800781 50.832031 L 35.832031 63.878906 C 35.328031 64.384906 34.937812 64.564453 34.757812 64.564453 C 34.706812 64.564453 34.677578 64.553578 34.642578 64.517578 C 34.480578 64.354578 34.752391 63.836547 35.275391 63.310547 L 48.283203 50.222656 z"/></svg>